<svg version="1.1" id="Layer_1" xmlns="http://www.w3.org/2000/svg" xmlns:xlink="http://www.w3.org/1999/xlink" x="0px" y="0px" viewBox="0 0 491.8 491.8" style="enable-background:new 0 0 491.8 491.8;" xml:space="preserve">
<style type="text/css">
	.st0{fill:#040404;}
	.st1{fill:#050505;}
	.st2{fill:#B6B15D;}
	.st3{fill:#77B9DC;}
	.st4{fill:#FFFFFF;}
	.st5{fill:#7EB9E5;}
	.st6{fill:#4681A1;}
	.st7{fill:#171717;}
	.st8{fill:#141414;}
	.st9{fill:#C3B15F;}
	.st10{fill:#151515;}
	.st11{fill:#232323;}
	.st12{fill:#1E1E1E;}
	.st13{fill:#C5BE92;}
	.st14{fill:#BFB26E;}
	.st15{fill:#7FB5DB;}
	.st16{fill:#1B1B1B;}
	.st17{fill:#1D1D1D;}
	.st18{fill:#111111;}
	.st19{fill:#070707;}
	.st20{fill:#F9F9F9;}
	.st21{fill:#F5F5F5;}
	.st22{fill:#080808;}
	.st23{fill:#0F0F0F;}
	.st24{fill:#FAFAFA;}
	.st25{fill:#81BAD8;}
	.st26{fill:#C4B06B;}
	.st27{fill:#1A1A1A;}
	.st28{fill:#010101;}
	.st29{fill:#2C2C2C;}
	.st30{fill:#0A0A0A;}
	.st31{fill:#D6D6D6;}
	.st32{fill:#C4B866;}
	.st33{fill:#060606;}
	.st34{font-family:'MyriadPro-Regular';}
	.st35{font-size:12px;}
</style>
<g>
<path class="st0" d="M242.6,459c-5.8-1.4-16.9,4.3-17.1-7.6c-0.2-9.9,10.1-6.9,16.3-7.6c25.7-2.6,49.5-9.7,69.4-27
		c12.1-10.5,19.2-23.5,20.2-39.7c0.4-6.2-3-16.5,7.2-16.1c10.9,0.4,8.2,11.1,7.9,18.2c-0.9,22.1-11.6,39.4-28.9,52.6
		C295.8,448.5,270.9,457.5,242.6,459z" id="id_101" style="fill: rgb(255, 255, 255);"></path>
<g>
<path class="st0" d="M300.4,156.6c18.5-1.1,33-16.8,32.4-35.1c-0.6-18.2-16.8-33.5-34.7-32.6c-18.4,0.9-32.9,16.7-32.3,35
			C266.3,142.4,282.6,157.7,300.4,156.6z M299.7,105c10.9,0,16,7,17.9,17c-1.4,11.2-7,18.9-18.8,18.5c-10.4-0.3-17.3-6.6-17.5-17.1
			C281.1,111.8,287.9,105,299.7,105z" id="id_102" style="fill: rgb(219, 113, 46);"></path>
<path class="st0" d="M443.8,117.4c-62.9-87.4-187-100-265.6-26.3c-7.1,6.6-11.3,14.7-24.3,5.9c-23.8-16.1-50.2-14.7-73.9,1.1
			c-23.7,15.8-34.3,39.3-29.7,67.9c4.7,29.4,22,48.3,50.7,56.6c6.5,1.9,13.3,2.4,16,10.9c9.9,31.3,20.3,62.3,31.5,96.1
			c-17.7-6.7-32.7-10.1-43.8,5.1c-11.2,15.4-3.6,29,5.5,42.2c10.1,14.6,19.6,29.5,29.8,44c11.4,16.3,27.2,26.9,45.3,34.5
			c4.5,1.9,9.1,3.5,12-1.8c2.6-4.9,0.8-9-4.5-10.9c-35.8-13-49.9-46.3-69.4-74.4c-5.4-7.8-15.6-16.7-4.5-25.9
			c12.7-10.5,18.8,3.6,25.9,10.4c8.3,8,15.7,16.9,23.9,25.1c3.2,3.2,7.3,6.4,11.8,1.4c3.1-3.5,1.7-6.5-0.1-10.3
			c-21.8-47.6-33.7-98.8-51.1-148c-3.4-9.7-10.6-22.4,5.1-26.9c15.5-4.5,16.1,10.7,19.3,20.1c10.7,31.3,20.7,62.9,31,94.3
			c1.6,5,3,12,9.9,10.5c8.4-1.8,6.4-8.8,4.5-14.9c-3.5-11-7.3-21.9-10.5-32.9c-2.1-7.2-1.6-14.3,6.8-17.2
			c9.1-3.1,14.5,1.5,17.3,10.2c3.8,11.7,7.8,23.3,11.8,35c1.6,4.7,4.3,8.6,10,6.7c5.8-1.8,5.5-6.9,4.3-11.4
			c-1.5-6-3.6-11.8-5.6-17.6c-3.1-9.1-6.6-19,6.2-22.7c12.5-3.6,15.3,7.1,18.4,15.8c2.3,6.5,3.8,13.4,6.3,19.8
			c2.1,5.4,3,14.4,10.7,12.5c9.6-2.3,5.9-10.4,3.7-17.1c-3-8.9-6.3-19.7,5.7-23.5c13.8-4.3,16.1,8.1,19.3,17.4
			c6.8,20.4,13.1,41,20,61.4c1.8,5.4,2.8,13.8,11.4,11.3c9.2-2.6,4.7-9.9,3-15.3c-6-19.1-12.3-38.1-18.6-57
			c-10.9-32.5-11-32.4-46.6-29.5c-2.1,0.2-5.2,0.4-6.2-0.8c-19.9-23.4-47-6.5-69.6-9c-18.3-2-21-6.8-25.6-19.6
			c-3.9-10.8-2.8-20,6-26.8c9.2-7.1,13.2,4,18.4,7.7c80.7,57.1,191.8,38.4,248.2-41.1C454.8,144.6,455,132.9,443.8,117.4z
			 M168.5,176.2c-2.6,7.2-4.3,13.1-15.9,6.4c-19.7-11.3-34-5.7-41.8,15.6c-4.3,12-8.6,9.6-16.3,5.8c-23.7-11.7-35.6-39.1-27.7-64
			c8.5-26.4,34-42.3,61-37.8c25.8,4.3,44.7,27,44.5,57.6C171.6,162.9,170.8,169.8,168.5,176.2z M298.1,60.4
			c34.6-0.6,63.3,27.6,63.4,62.3c0.2,33.3-27.6,61.6-61.2,62.2c-33.9,0.7-64.1-28.8-63.8-62.3C236.8,89.3,264.8,61,298.1,60.4z
			 M431.9,149.8c-50.2,76.4-163.8,92.9-234.1,33.9c-7.7-6.5-12.3-12.8-10.1-23.5c1.1-5.8-0.3-12.3-1.5-18.2
			c-7.3-34.1-6-37.8,24.1-57.1c8.2-5.2,17.1-9.4,30.9-16.8c-26.9,49.1-23.4,85.5,7,112.6c26.5,23.7,67.2,25.7,96,4.7
			c35-25.4,40.4-61.4,16.1-114.8c31.6,12.7,54.6,32.6,72.8,58.9C438.5,137.3,436.7,142.6,431.9,149.8z" id="id_103" style="fill: rgb(255, 255, 255);"></path>
</g>
</g>
<text transform="matrix(1 0 0 1 224.5294 100.353)" class="st34 st35">Eye Care</text>
<text transform="matrix(1 0 0 1 224.7647 100.353)" class="st34 st35">Eye Care</text>
</svg>