<svg id="Layer_1" data-name="Layer 1" xmlns="http://www.w3.org/2000/svg" viewBox="0 0 512 512"><defs><style>.cls-1{fill:#efeae6;}.cls-2{fill:#6d4135;}.cls-3{fill:#ffd38d;}</style></defs><title>eye-filled</title><path class="cls-1" d="M256,106.67C153.62,106.67,65,167.38,21.33,256,65,344.62,153.62,405.33,256,405.33S447,344.62,490.67,256C447,167.38,358.38,106.67,256,106.67Z" id="id_105"></path><path class="cls-2" d="M256,426.67c-107.6,0-204.86-61.78-253.81-161.25a21.33,21.33,0,0,1,0-18.83C51.14,147.11,148.4,85.33,256,85.33s204.86,61.78,253.81,161.25a21.33,21.33,0,0,1,0,18.83C460.86,364.89,363.6,426.67,256,426.67ZM45.35,256C88.41,335.23,168.21,384,256,384s167.59-48.77,210.65-128C423.59,176.77,343.79,128,256,128S88.41,176.77,45.35,256Z" id="id_106" style="fill: rgb(255, 255, 255);"></path><circle class="cls-3" cx="256" cy="256" r="85.33" id="id_107" style="fill: rgb(204, 77, 49);"></circle><path class="cls-2" d="M256,362.67A106.67,106.67,0,1,1,362.67,256,106.79,106.79,0,0,1,256,362.67ZM256,192a64,64,0,1,0,64,64A64.07,64.07,0,0,0,256,192Z" id="id_108" style="fill: rgb(207, 68, 37);"></path></svg>