<svg version="1.1" id="Layer_1" xmlns="http://www.w3.org/2000/svg" xmlns:xlink="http://www.w3.org/1999/xlink" x="0px" y="0px" viewBox="0 0 218.101 207.4655" enable-background="new 0 0 218.101 207.4655" xml:space="preserve">
<g>
<path d="M69.9702,39.2773c0.8922-2.4231,1.3802-5.0416,1.3802-7.7745c0-5.9741-2.3323-11.4001-6.1306-15.4286v12.1689
		L69.9702,39.2773z" id="id_145" style="fill: rgb(255, 255, 255);"></path>
<path d="M48.8504,54.0028c4.9745,0,9.5693-1.6171,13.2942-4.35V45.376l-6.1328-14.2451c-0.2598-0.6021-0.3916-1.2412-0.3916-1.8984
		V10.0409c-2.1368-0.6733-4.4104-1.0381-6.7698-1.0381c-12.4258,0-22.5,10.0732-22.5,22.5
		C26.3504,43.9295,36.4246,54.0028,48.8504,54.0028z" id="id_146" style="fill: rgb(255, 255, 255);"></path>
<path d="M22.1055,146.0214c0.4947,0.0595,0.9953,0.0993,1.506,0.0993H37.906h23.5463l3.5127,49.7251
		c0.4648,6.5864,5.9531,11.6196,12.4561,11.6196c0.2959,0,0.5938-0.0103,0.8936-0.0317
		c6.8867-0.4863,12.0742-6.4629,11.5879-13.3496l-4.333-61.3442c-0.4619-6.5454-5.9072-11.6191-12.4688-11.6191H37.6305h-1.2783
		c0.0024-0.9626,0.0275-1.9298,0.0598-2.898c-14.4871-14.4488-19.2284-33.2335-19.4059-44.0361
		c-0.0928-5.6782,4.4512-10.374,10.1289-10.4678l0.1377-0.001c5.585,0,10.2188,4.5278,10.3301,10.0928
		c0.0145,0.545,0.2427,6.5234,3.0373,13.8994c0.5679-2.817,1.122-5.4999,1.6083-7.9839c2.8691-9.9531-0.8848-21.8652-9.4199-23.9921
		c-8.5371-2.129-20.9121,2.5078-25.9473,17.1503c-6.8047,20.1739-8.2676,33.3047-5.6816,55.5196
		C4.0569,143.1081,13.5073,145.7608,22.1055,146.0214z" id="id_147" style="fill: rgb(255, 255, 255);"></path>
<path d="M27.1731,66.0187c-4.417,0.0728-7.9395,3.7129-7.8672,8.1304c0.1793,10.922,5.2034,30.3155,20.8582,44.4717h31.7215
		c-0.8443-0.7889-1.8665-1.4128-3.0416-1.7842c-32.2793-10.2007-33.5029-41.5537-33.541-42.98
		C35.2151,69.4528,31.5754,65.9655,27.1731,66.0187z" id="id_148" style="fill: rgb(255, 255, 255);"></path>
<rect x="0.6838" y="152.215" width="55.5" height="49.5" id="id_149" style="fill: rgb(214, 76, 45);"></rect>
<circle cx="173.5006" cy="30.5028" r="22.5" id="id_150" style="fill: rgb(255, 255, 255);"></circle>
<rect x="161.9172" y="152.215" width="55.5" height="49.5" id="id_151" style="fill: rgb(217, 73, 41);"></rect>
<path d="M184.547,67.7104c1.8867-1.6729,4.3125-2.5938,6.8311-2.5938c2.9453,0,5.7559,1.2632,7.709,3.4653
		c1.8252,2.0591,2.7402,4.7051,2.5752,7.4517c-0.165,2.7461-1.3896,5.2637-3.4473,7.0889l-18.5398,16.4409
		c1.1631,6.9991,2.0552,14.3717,2.0736,21.5573h-1.2783h-7.1552c0.2762-0.84,0.5614-1.673,0.8538-2.5
		c0.7214-2.0401,1.489-4.0422,2.3057-6c-0.384-3.1637-0.6451-6.3394-0.7886-9.52l-3.9714,3.5218
		c-1.5005,1.3311-3.3461,2.1765-5.3077,2.4702c-0.1086,1.3741-0.1874,2.6726-0.2272,3.8599c0.9192,1.924,1.8806,3.8131,2.8796,5.668
		c0.4532,0.8415,0.9171,1.6732,1.386,2.5h-25.4454c-6.5615,0-12.0068,5.0737-12.4688,11.6191l-4.333,61.3442
		c-0.4863,6.8867,4.7012,12.8633,11.5879,13.3496c0.2998,0.0215,0.5977,0.0317,0.8936,0.0317
		c6.5029,0,11.9912-5.0332,12.4561-11.6196l3.5127-49.7251h23.5463h14.2945c0.5107,0,1.0114-0.0398,1.506-0.0993
		c8.5982-0.2606,18.0486-2.9133,20.9059-17.6176c2.586-22.2149,1.123-35.3457-5.6816-55.5196
		c-5.0352-14.6425-17.4102-19.2793-25.9473-17.1503c-3.7111,0.9248-6.517,3.7006-8.2689,7.3598
		c-0.0779,0.0215-0.1491,0.0625-0.2046,0.15c-1.8344,2.8853-3.7907,9.0135-5.5205,16.2328L184.547,67.7104z" id="id_152" style="fill: rgb(255, 255, 255);"></path>
<polygon points="56.6309,96.1665 56.6309,103.6665 105.131,103.6665 105.131,198.4998 93.9643,198.4998 93.9643,204.4998 
		123.631,204.4998 123.631,198.4998 111.631,198.4998 111.631,103.6665 153.3221,103.6665 141.8499,96.1665 	" id="id_153" style="fill: rgb(255, 255, 255);"></polygon>
<path d="M73.6798,73.4595c-3.543,0-4.1387-2.938-4.2354-3.9209V44.3867c0-0.3398-0.0693-0.6763-0.2041-0.9888L62.92,28.7173V2.5
		c0-1.3809-1.1191-2.5-2.5-2.5s-2.5,1.1191-2.5,2.5v26.7324c0,0.3398,0.0693,0.6763,0.2041,0.9888l6.3203,14.6807V69.645
		c0,0.0557,0.002,0.1108,0.0059,0.1665c0.1992,2.9912,2.3848,8.6479,9.2295,8.6479h13.2609v2.2998v6.0051H59.6309
		c-1.65,0-3,1.35-3,3v0.7355c0,1.65,1.35,3,3,3h78.1399l-10.3028-6.7355h-6.429V41.8332h19.5919c1.65,0,3-1.35,3-3V22.3816
		c0-1.65-1.35-3-3-3H78.1535c-1.65,0-3,1.35-3,3v16.4516c0,1.65,1.35,3,3,3h8.7871v29.3265v2.2998H73.6798z M136.7143,23.3332
		c0.9665,0,1.75,0.7835,1.75,1.75s-0.7835,1.75-1.75,1.75s-1.75-0.7835-1.75-1.75S135.7478,23.3332,136.7143,23.3332z
		 M130.8393,23.3332c0.9665,0,1.75,0.7835,1.75,1.75s-0.7835,1.75-1.75,1.75s-1.75-0.7835-1.75-1.75
		S129.8728,23.3332,130.8393,23.3332z" id="id_154" style="fill: rgb(255, 255, 255);"></path>
<path d="M134.931,67.8177v-8.4012h-5.0516v8.5001c0.8877-0.2455,1.8122-0.3843,2.7604-0.3843
		C133.418,67.5322,134.1817,67.6458,134.931,67.8177z" id="id_155" style="fill: rgb(255, 255, 255);"></path>
<path d="M160.503,105.6128c1.3369,0.874,2.8604,1.3037,4.376,1.3037c1.9082,0,3.8057-0.6807,5.3096-2.0146l26.5-23.5
		c3.3057-2.9312,3.6094-7.9873,0.6777-11.2935c-2.9316-3.3052-7.9873-3.6089-11.293-0.6772L164.1446,88.877l-27.1357-17.7402
		c-3.6982-2.418-8.6563-1.3784-11.0742,2.3188c-2.417,3.6982-1.3789,8.6558,2.3184,11.0737L160.503,105.6128z" id="id_156" style="fill: rgb(255, 255, 255);"></path>
</g>
</svg>